<svg xmlns="http://www.w3.org/2000/svg" viewBox="0 0 512 512"><path d="M256 96C144.3 96 47.7 161.2 0 256c47.7 94.8 144.3 160 256 160s208.3-65.2 256-160C464.3 161.2 367.7 96 256 96zm126.3 84.9c30.3 19.2 55.9 44.8 74.5 75.1-19.2 30.3-44.8 55.9-74.5 75.1-37.8 23.9-81.5 36.7-126.3 36.7s-88.4-12.8-126.3-36.7c-30.3-19.2-55.9-44.8-74.5-75.1 19.2-30.3 44.8-55.9 74.5-75.1l5.8-3.5c-4.7 13.4-7.6 27.9-7.6 43.6 0 70.4 57.6 128 128 128s128-57.6 128-128c0-15.1-2.9-30.3-7.6-43.6l6 3.5zM256 208.3c0 26.8-21.5 48.3-48.3 48.3s-48.3-21.5-48.3-48.3 21.5-48.3 48.3-48.3 48.3 21.5 48.3 48.3z"/></svg>