<svg xmlns="http://www.w3.org/2000/svg" viewBox="0 0 512 512"><path d="M12 236.1l99.4 91.1-27.5 127.1c-2.8 16.6 2.8 33.2 16.6 41.4 5.5 5.5 13.8 8.3 22.1 8.3 5.5 0 11 0 16.6-2.8 0 0 2.8 0 2.8-2.8L255.1 435l113.2 63.5s2.8 0 2.8 2.8c13.8 5.5 30.4 5.5 41.4-2.8 13.8-8.3 19.3-24.9 16.6-41.4L401.5 330c11-8.3 27.6-24.9 44.2-41.4l52.5-46.9 2.8-2.8c11-11 13.8-27.6 8.3-41.4-5.5-13.8-16.6-24.9-33.1-27.6h-2.8L343.5 156 291 37.2s0-2.8-2.8-2.8c-2.8-19.3-16.6-27.6-30.4-27.6-13.8 0-27.6 8.3-35.9 22.1 0 0 0 2.8-2.8 2.8l-52.5 118.8-129.7 13.8h-2.8C20.3 167.1 6.5 178.1 1 191.9c-2.8 16.6 0 33.2 11 44.2z"/></svg>