<?xml version="1.0" encoding="utf-8"?>
<!-- Generator: Adobe Illustrator 19.0.0, SVG Export Plug-In . SVG Version: 6.00 Build 0)  -->
<svg version="1.1" id="Layer_1" xmlns="http://www.w3.org/2000/svg" xmlns:xlink="http://www.w3.org/1999/xlink" x="0px" y="0px"
	 viewBox="0 0 512 512" style="enable-background:new 0 0 512 512;" xml:space="preserve">
<g id="XMLID_1_">
	<path id="XMLID_6_" d="M256,96C144.3,96,47.7,161.2,0,256c47.7,94.8,144.3,160,256,160s208.3-65.2,256-160
		C464.3,161.2,367.7,96,256,96z M382.3,180.9c30.3,19.2,55.9,44.8,74.5,75.1c-19.2,30.3-44.8,55.9-74.5,75.1
		c-37.8,23.9-81.5,36.7-126.3,36.7s-88.4-12.8-126.3-36.7c-30.3-19.2-55.9-44.8-74.5-75.1c19.2-30.3,44.8-55.9,74.5-75.1l5.8-3.5
		c-4.7,13.4-7.6,27.9-7.6,43.6c0,70.4,57.6,128,128,128s128-57.6,128-128c0-15.1-2.9-30.3-7.6-43.6L382.3,180.9L382.3,180.9z
		 M256,208.3c0,26.8-21.5,48.3-48.3,48.3s-48.3-21.5-48.3-48.3s21.5-48.3,48.3-48.3S256,181.5,256,208.3z"/>
</g>
</svg>
