<svg data-name="Layer 1" xmlns="http://www.w3.org/2000/svg" viewBox="0 0 512 512"><path d="M0 256C0 114.62 114.62 0 256 0s256 114.63 256 256-114.63 256-256 256S0 397.38 0 256z" fill="#00c7ff"/><path d="M360.14 195.87c-6.71-11.63-20.89-17.78-41-17.78a120.74 120.74 0 00-19.05 1.69c-10.3-27-26.07-44-44.06-44s-33.79 17-44.08 44a122.14 122.14 0 00-19.06-1.68c-20.13 0-34.31 6.15-41 17.78-9 15.58-2.16 37.73 16.06 60.13-18.23 22.4-25 44.54-16.06 60.13 6.73 11.62 20.91 17.78 41 17.78a121.55 121.55 0 0019.06-1.67c10.3 27 26.08 44 44.08 44s33.76-17 44.06-44a121.51 121.51 0 0019.05 1.67c20.15 0 34.33-6.15 41-17.78 9-15.57 2.16-37.73-16-60.13 18.17-22.41 25-44.56 16-60.14zm-41-8.34c16.32 0 28 4.64 32.84 13.06 6.75 11.67.6 29.47-14.24 48.08a204.07 204.07 0 00-27.1-24.21 205.43 205.43 0 00-7.42-35.61 111.35 111.35 0 0115.91-1.32zm-39.55 109.31a250 250 0 01-23.58 12 249.27 249.27 0 01-23.58-12 245 245 0 01-22.13-14.46 237.81 237.81 0 010-52.75 244.18 244.18 0 0122.13-14.48 251.86 251.86 0 0123.58-12 252.58 252.58 0 0123.58 12 249.65 249.65 0 0122.13 14.47 244.4 244.4 0 011.45 26.38 249.15 249.15 0 01-1.45 26.38 243.55 243.55 0 01-22.13 14.46zm20.41-1.68a192.58 192.58 0 01-6.23 26.24 183.34 183.34 0 01-25.94-7.71c5.53-2.68 11-5.51 16.51-8.67s10.66-6.48 15.66-9.86zm-55.8 18.53a182.26 182.26 0 01-25.92 7.71 189.3 189.3 0 01-6.23-26.24c5 3.36 10.19 6.69 15.66 9.84s10.98 6 16.49 8.69zm-44.08-39.21A191.7 191.7 0 01180.54 256a189 189 0 0119.58-18.47c-.43 6-.72 12.15-.72 18.46s.29 12.46.72 18.49zm11.93-57.62a189 189 0 016.23-26.25 182.22 182.22 0 0125.92 7.71c-5.51 2.68-11 5.52-16.49 8.67s-10.64 6.47-15.65 9.86zm55.74-18.54a183.31 183.31 0 0125.94-7.71 189.25 189.25 0 016.27 26.24c-5-3.38-10.19-6.69-15.66-9.85s-11.02-6-16.55-8.69zm44.11 39.22A190.73 190.73 0 01331.48 256a192.63 192.63 0 01-19.58 18.47c.43-6 .69-12.17.69-18.48s-.26-12.43-.68-18.46zM256 145.18c13.51 0 25.86 14.25 34.56 36.47a204.86 204.86 0 00-34.56 11.3 204.92 204.92 0 00-34.56-11.3c8.69-22.22 21.06-36.47 34.56-36.47zm-96 55.41c4.86-8.42 16.52-13.06 32.84-13.06a111.1 111.1 0 0115.92 1.32 203.49 203.49 0 00-7.43 35.61 204.49 204.49 0 00-27.1 24.21c-14.8-18.61-20.94-36.41-14.23-48.08zm32.85 123.88c-16.31 0-28-4.64-32.83-13.06-6.75-11.68-.59-29.47 14.24-48.08a204.55 204.55 0 0027.1 24.2 205.75 205.75 0 007.42 35.6 108.92 108.92 0 01-15.9 1.34zM256 366.82c-13.51 0-25.87-14.25-34.56-36.47A205.43 205.43 0 00256 319.06a203.91 203.91 0 0034.56 11.29c-8.69 22.22-21.04 36.47-34.56 36.47zm96-55.41c-4.87 8.42-16.53 13.06-32.87 13.06a111 111 0 01-15.91-1.33 204.24 204.24 0 007.43-35.59 204 204 0 0027.09-24.23c14.85 18.62 20.99 36.41 14.26 48.09zM278.41 256A22.4 22.4 0 11256 233.6a22.38 22.38 0 0122.41 22.4z" fill="#fff"/></svg>