<svg data-name="Layer 1" xmlns="http://www.w3.org/2000/svg" viewBox="0 0 512 512"><path fill="#24b6ea" d="M0 0h512v512H0z"/><path d="M210.8 282a96.82 96.82 0 017.58-81.93 97.84 97.84 0 0115.06-19.43 96.16 96.16 0 0168.46-28.37 99.1 99.1 0 0116.41 1.39 67.19 67.19 0 00-105 23.68 67.23 67.23 0 00-128.6 27.44v6.77s0 66.17 127.75 132.74c0 0 22.8-11.48 32-17.19a99.06 99.06 0 01-11-9.55A96.33 96.33 0 01210.8 282zm-56.91-129.62a11 11 0 11-11 11 11 11 0 0111-11zm-34.5 82.51a11.2 11.2 0 01-3.08.43 11.48 11.48 0 01-11.05-8.42 72.17 72.17 0 01-2.76-17c-1-27.16 15.7-40.53 16.54-41.2a11.51 11.51 0 0114.25 18.08c-.6.51-7.83 7-7.78 21a48.69 48.69 0 001.92 13 11.51 11.51 0 01-8.04 14.12z" fill="#fff"/><path d="M297.24 282c-21.31-3.86-26.65-24.42-26.87-25.37a8.21 8.21 0 00-16 3.79c.3 1.33 7.82 31.91 39.9 37.73a7.38 7.38 0 001.52.14 8.21 8.21 0 001.45-16.29z" fill="#fff"/><path d="M423.43 335.81l-31.3-31.31a12.3 12.3 0 00-17.4 0l-8.52-8.5a79.47 79.47 0 10-17.38 17.4l8.48 8.51a12.35 12.35 0 000 17.39l31.31 31.31a13.12 13.12 0 0018.56 0l16.26-16.24a13.17 13.17 0 00-.01-18.56zm-82.66-47.87a55 55 0 01-87.17-65 55.44 55.44 0 019.4-12.69c.58-.56 1.12-1.1 1.68-1.62a54.94 54.94 0 0176 1.62 56 56 0 015.63 6.61 55 55 0 01-5.54 71.08z" fill="#fff"/><path d="M264.09 241.93a8 8 0 10-8-8 8 8 0 008 8z" fill="#fff"/></svg>