<svg data-name="Layer 1" xmlns="http://www.w3.org/2000/svg" viewBox="0 0 118.43 36.5"><path d="M6.02 35.09l-4.04-2.9h-.97v2.9H.1v-6.38h.91v2.56h.97l3.7-2.56h1.6l-4.39 3.02 4.67 3.36H6.02zm21.75 0V32.3h-5.29v2.79h-.91v-6.38h.91v2.68h5.29v-2.68h.97v6.38h-.97zm3.25 0v-6.38h.91v6.38h-.91zm9 0l-3.99-2.79h-1.08v2.79h-.91v-6.38h.91v2.68h.91l4.05-2.68h1.59l-4.62 3.13 4.73 3.25h-1.59zm8.48-2.27h-1.77v.85h2.17l.69 1.46h1l-3.25-6.37h-.63v.73h.06l1.71 3.36zm-1.77 0h-1.82l1.65-3.36h.17v-.73h-.79l-3.3 6.4h1.14l.74-1.42h2.22zM18.4 35.09v-6.38h.92v6.38h-.92zm47.12 0h6.94v-1.6H67.5v-.9h4.73v-1.61H67.5v-.96h4.96v-1.7h-6.94v6.77zm18.58-6.77h1.99v6.78H84.1zm11.84 0h-2.69l-2.27 2.38h-1.02v-2.38h-2.11v6.77h1.99l.12-2.62h1.02l2.51 2.62h2.9l-3.64-3.48 3.19-3.29zm9.91 1.81c0-2-2.43-1.77-2.43-1.77H99.9s-2.44-.23-2.44 1.77v3a1.79 1.79 0 001.57 2h5a1.78 1.78 0 001.82-2zM103 33.44h-2.64a.9.9 0 01-.91-1v-1.52c0-1 1.22-.89 1.22-.89h2s1.23-.09 1.23.89v1.51a.9.9 0 01-.78 1zm-20.59-3.31c0-2-2.44-1.76-2.44-1.76h-5.76v6.76h6.37a1.79 1.79 0 001.82-2zm-2.88 3.34h-3.34V30h3s1.22-.09 1.22.89v1.5a.9.9 0 01-.77 1h-.11zm-21.06-1.21l-1.88-3.94h-3.64v6.77h1.93V29.8l2.73 5.29h1.66l2.39-5.29v5.29h2.1v-6.77h-3.47l-1.82 3.94zm56.48-3.94l-1.83 3.94-1.87-3.94h-3.65v6.77h1.93V29.8l2.74 5.29h1.66l2.39-5.29v5.29h2.1v-6.77h-3.47zm-98.67 6.81v-6.41H9.84v4.41a1 1 0 01-.93 1.07h-.07v.93s1.87.5 1.87-1.94v-3.68h4.59v5.61zm27.3-33.19a.71.71 0 01-.71.71H15.15a.71.71 0 01-.72-.7.72.72 0 01.72-.71h27.71a.71.71 0 01.71.71zm-2.89 4.3A.71.71 0 0140 7H12.25a.71.71 0 01-.71-.71.71.71 0 01.71-.71H40a.71.71 0 01.72.7zm-2.91 4.29a.71.71 0 01-.71.71H9.35a.71.71 0 01-.71-.71.71.71 0 01.71-.71h27.72a.71.71 0 01.71.71zM34.88 15a.71.71 0 01-.71.71H6.45a.71.71 0 01-.71-.71.71.71 0 01.71-.71h27.72a.71.71 0 01.71.71zM32 19.2a.71.71 0 01-.71.71H3.55a.71.71 0 01-.71-.71.71.71 0 01.71-.71h27.73a.71.71 0 01.71.71zm-2.86 4.44a.71.71 0 01-.71.71H.71a.71.71 0 01-.71-.71.71.71 0 01.71-.71h27.72a.71.71 0 01.72.7zM65.8 1.13v13.4l8.26-12a3.37 3.37 0 012.64-1.4h13.63v19.14h6.31s4.22.2 4.22-4.81v-5.4s.6-4.94-3.77-4.94h-3.67v-4h12s13-.1 13 10.83-8.58 12.31-13 12.31H74.28V10.38l-8.48 12.4a3.1 3.1 0 01-2.35 1.48H49.56l-.06-13.82-9.36 13.82h-5.63l15.1-22s.53-1.14 2.57-1.14z" fill="#f1f2f2" data-name="Слой 2"/></svg>