<svg id="Layer_1" data-name="Layer 1" xmlns="http://www.w3.org/2000/svg" viewBox="0 0 512 512"><title>heart-magnifier</title><rect width="512" height="512" fill="#24b6ea"/><path d="M210.8,282a96.82,96.82,0,0,1,7.58-81.93,97.84,97.84,0,0,1,15.06-19.43,96.16,96.16,0,0,1,68.46-28.37,99.1,99.1,0,0,1,16.41,1.39,67.19,67.19,0,0,0-105,23.68,67.23,67.23,0,0,0-128.6,27.44v6.77s0,66.17,127.75,132.74c0,0,22.8-11.48,32-17.19a99.06,99.06,0,0,1-11-9.55A96.33,96.33,0,0,1,210.8,282ZM153.89,152.38a11,11,0,1,1-11,11A11,11,0,0,1,153.89,152.38Zm-34.5,82.51a11.2,11.2,0,0,1-3.08.43,11.48,11.48,0,0,1-11.05-8.42,72.17,72.17,0,0,1-2.76-17c-1-27.16,15.7-40.53,16.54-41.2a11.51,11.51,0,0,1,14.25,18.08c-.6.51-7.83,7-7.78,21a48.69,48.69,0,0,0,1.92,13A11.51,11.51,0,0,1,119.39,234.9Z" fill="#fff"/><path d="M297.24,282c-21.31-3.86-26.65-24.42-26.87-25.37a8.21,8.21,0,0,0-16,3.79c.3,1.33,7.82,31.91,39.9,37.73a7.38,7.38,0,0,0,1.52.14A8.21,8.21,0,0,0,297.24,282Z" fill="#fff"/><path d="M423.43,335.81,392.13,304.5a12.3,12.3,0,0,0-17.4,0h0L366.21,296a79.47,79.47,0,1,0-17.38,17.4l8.48,8.51h0a12.35,12.35,0,0,0,0,17.39l31.31,31.31a13.12,13.12,0,0,0,18.56,0l16.26-16.24A13.17,13.17,0,0,0,423.43,335.81Zm-82.66-47.87a55,55,0,0,1-87.17-65A55.44,55.44,0,0,1,263,210.25c.58-.56,1.12-1.1,1.68-1.62a54.94,54.94,0,0,1,76,1.62,56,56,0,0,1,5.63,6.61A55,55,0,0,1,340.77,287.94Z" fill="#fff"/><path d="M264.09,241.93a8,8,0,1,0-8-8A8,8,0,0,0,264.09,241.93Z" fill="#fff"/></svg>